<svg xmlns="http://www.w3.org/2000/svg" xmlns:xlink="http://www.w3.org/1999/xlink" xmlns:inkscape="http://www.inkscape.org/namespaces/inkscape" version="1.1" viewBox="0 0 703.033 647.28">
<defs>
<clipPath id="clip_0">
<path transform="matrix(1,0,0,-1,0,647.28)" d="M7.1 3.48H573.979V645.72H7.1Z"/>
</clipPath>
<clipPath id="clip_1">
<path transform="matrix(1,0,0,-1,0,647.28)" d="M6.74001 291.12H160.58V393H6.74001Z"/>
</clipPath>
<clipPath id="clip_2">
<path transform="matrix(1,0,0,-1,0,647.28)" d="M7.1 3.48H573.979V645.72H7.1Z"/>
</clipPath>
<clipPath id="clip_3">
<path transform="matrix(1,0,0,-1,0,647.28)" d="M6.74001 392.28H160.58V494.04H6.74001Z"/>
</clipPath>
<clipPath id="clip_4">
<path transform="matrix(1,0,0,-1,0,647.28)" d="M0 647.28H703.033V0H0Z"/>
</clipPath>
<clipPath id="clip_5">
<path transform="matrix(1,0,0,-1,0,647.28)" d="M193.94 6.48H264.38V153.6H193.94Z"/>
</clipPath>
<clipPath id="clip_6">
<path transform="matrix(1,0,0,-1,0,647.28)" d="M270.873 6.48H341.313V153.6H270.873Z"/>
</clipPath>
<clipPath id="clip_7">
<path transform="matrix(1,0,0,-1,0,647.28)" d="M347.407 6.48H417.847V153.6H347.407Z"/>
</clipPath>
<clipPath id="clip_8">
<path transform="matrix(1,0,0,-1,0,647.28)" d="M423.94 6.48H494.38V153.6H423.94Z"/>
</clipPath>
<clipPath id="clip_9">
<path transform="matrix(1,0,0,-1,0,647.28)" d="M500.473 6.48H570.913V153.6H500.473Z"/>
</clipPath>
<clipPath id="clip_10">
<path transform="matrix(1,0,0,-1,0,647.28)" d="M500.473 443.88H570.913V591H500.473Z"/>
</clipPath>
<clipPath id="clip_11">
<path transform="matrix(1,0,0,-1,0,647.28)" d="M423.873 443.88H494.313V591H423.873Z"/>
</clipPath>
<clipPath id="clip_12">
<path transform="matrix(1,0,0,-1,0,647.28)" d="M347.273 443.88H417.713V591H347.273Z"/>
</clipPath>
<clipPath id="clip_13">
<path transform="matrix(1,0,0,-1,0,647.28)" d="M0 647.28H703.033V0H0Z"/>
</clipPath>
<clipPath id="clip_14">
<path transform="matrix(1,0,0,-1,0,647.28)" d="M0 647.28H703.033V0H0Z"/>
</clipPath>
<clipPath id="clip_15">
<path transform="matrix(1,0,0,-1,0,647.28)" d="M0 647.28H703.033V0H0Z"/>
</clipPath>
</defs>
<g>
<g inkscape:groupmode="layer" inkscape:label="&#xB808;&#xC774;&#xC5B4; 1">
<path transform="matrix(1,0,0,-1,0,647.28)" d="M687.967 266.28H664.634V285.48H687.967Z" fill="#d3d3d3"/>
<path transform="matrix(1,0,0,-1,0,647.28)" d="M580.767 400.08H664.9V619.17H580.767Z" fill="#bcbcbc"/>
<path transform="matrix(1,0,0,-1,0,647.28)" stroke-width="1" stroke-linecap="butt" stroke-miterlimit="10" stroke-linejoin="miter" fill="none" stroke="#000000" d="M580.767 400.08H664.9V619.17H580.767Z"/>
<g clip-path="url(#clip_0)">
<g opacity=".5">
<g clip-path="url(#clip_1)">
<path transform="matrix(1,0,0,-1,0,647.28)" d="M7.1 392.64H160.22V291.48H7.1Z" fill="#6990ff"/>
<path transform="matrix(1,0,0,-1,0,647.28)" stroke-width=".72" stroke-linecap="round" stroke-linejoin="round" fill="none" stroke="#000000" d="M7.1 392.64H160.22V291.48H7.1Z"/>
</g>
</g>
</g>
<path transform="matrix(1,0,0,-1,0,647.28)" stroke-width=".72" stroke-linecap="round" stroke-linejoin="round" fill="none" stroke="#000000" d="M10.1 389.52H157.22V323.63999H10.1Z"/>
<path transform="matrix(1,0,0,-1,0,647.28)" stroke-width=".72" stroke-linecap="round" stroke-linejoin="round" fill="none" stroke="#000000" d="M157.22 294.48H10.100006V320.64H157.22Z"/>
<path transform="matrix(1,0,0,-1,109.82,281.88005)" stroke-width=".72" stroke-linecap="round" stroke-linejoin="round" fill="none" stroke="#000000" d="M0 0 2.64 2.64"/>
<g clip-path="url(#clip_2)">
<path transform="matrix(1,0,0,-1,90.2456,301.53694)" stroke-width=".72" stroke-linecap="round" stroke-linejoin="round" fill="none" stroke="#000000" d="M0 0C3.777-4.86 10.021-7.104 16.028-5.759 22.035-4.414 26.726 .277 28.07 6.284 29.415 12.291 27.172 18.534 22.311 22.311"/>
<path transform="matrix(1,0,0,-1,90.14,301.56004)" stroke-width=".72" stroke-linecap="round" stroke-linejoin="round" fill="none" stroke="#000000" d="M0 0 2.64 2.64"/>
<path transform="matrix(1,0,0,-1,92.8093,298.95475)" stroke-width=".72" stroke-linecap="round" stroke-linejoin="round" fill="none" stroke="#000000" d="M0 0C2.843-3.959 7.756-5.866 12.526-4.861 17.296-3.857 21.022-.13 22.027 4.639 23.031 9.409 21.125 14.322 17.165 17.165"/>
<path transform="matrix(1,0,0,-1,108.62,269.16004)" stroke-width=".72" stroke-linecap="round" stroke-linejoin="round" fill="none" stroke="#000000" d="M0 0 1.68-3.72-12.84-10.44V-24.84L-16.32-25.2V-14.4H-18.84V-25.44L-27.96-26.28"/>
<path transform="matrix(1,0,0,-1,80.7607,295.43055)" stroke-width=".72" stroke-linecap="round" stroke-linejoin="round" fill="none" stroke="#000000" d="M0 0C.192 2.036-1.051 3.933-2.994 4.572-4.936 5.21-7.062 4.419-8.115 2.666-9.168 .913-8.868-1.335-7.393-2.75-5.917-4.166-3.658-4.372-1.951-3.247"/>
<path transform="matrix(1,0,0,-1,78.74,298.68003)" stroke-width=".72" stroke-linecap="round" stroke-linejoin="round" fill="none" stroke="#000000" d="M0 0 20.16 1.68V17.16L35.64 24.36 34.44 27.12 32.4 30.72 29.88 29.52"/>
<path transform="matrix(1,0,0,-1,10.1,334.32005)" stroke-width=".72" stroke-linecap="round" stroke-linejoin="round" fill="none" stroke="#000000" d="M0 0 7.44 7.68"/>
<path transform="matrix(1,0,0,-1,10.1,338.76005)" stroke-width=".72" stroke-linecap="round" stroke-linejoin="round" fill="none" stroke="#000000" d="M0 0 11.76 12.12"/>
<path transform="matrix(1,0,0,-1,16.7,352.80003)" stroke-width=".72" stroke-linecap="round" stroke-linejoin="round" fill="none" stroke="#000000" d="M0 0 25.32 26.16"/>
<path transform="matrix(1,0,0,-1,21.02,352.80003)" stroke-width=".72" stroke-linecap="round" stroke-linejoin="round" fill="none" stroke="#000000" d="M0 0 25.32 26.16"/>
<path transform="matrix(1,0,0,-1,41.18,352.80003)" stroke-width=".72" stroke-linecap="round" stroke-linejoin="round" fill="none" stroke="#000000" d="M0 0 25.44 26.16"/>
<path transform="matrix(1,0,0,-1,45.5,352.80003)" stroke-width=".72" stroke-linecap="round" stroke-linejoin="round" fill="none" stroke="#000000" d="M0 0 25.32 26.16"/>
<path transform="matrix(1,0,0,-1,65.78,352.80003)" stroke-width=".72" stroke-linecap="round" stroke-linejoin="round" fill="none" stroke="#000000" d="M0 0 25.32 26.16"/>
<path transform="matrix(1,0,0,-1,69.98,352.80003)" stroke-width=".72" stroke-linecap="round" stroke-linejoin="round" fill="none" stroke="#000000" d="M0 0 25.44 26.16"/>
<path transform="matrix(1,0,0,-1,90.26,352.80003)" stroke-width=".72" stroke-linecap="round" stroke-linejoin="round" fill="none" stroke="#000000" d="M0 0 25.32 26.16"/>
<path transform="matrix(1,0,0,-1,94.58,352.80003)" stroke-width=".72" stroke-linecap="round" stroke-linejoin="round" fill="none" stroke="#000000" d="M0 0 25.32 26.16"/>
<path transform="matrix(1,0,0,-1,114.74,352.80003)" stroke-width=".72" stroke-linecap="round" stroke-linejoin="round" fill="none" stroke="#000000" d="M0 0 25.44 26.16"/>
<path transform="matrix(1,0,0,-1,119.06,352.80003)" stroke-width=".72" stroke-linecap="round" stroke-linejoin="round" fill="none" stroke="#000000" d="M0 0 25.32 26.16"/>
<path transform="matrix(1,0,0,-1,139.34,352.80003)" stroke-width=".72" stroke-linecap="round" stroke-linejoin="round" fill="none" stroke="#000000" d="M0 0 17.88 18.48"/>
<path transform="matrix(1,0,0,-1,143.54,352.80003)" stroke-width=".72" stroke-linecap="round" stroke-linejoin="round" fill="none" stroke="#000000" d="M0 0 13.68 14.04"/>
<path transform="matrix(1,0,0,-1,0,647.28)" stroke-width=".72" stroke-linecap="round" stroke-linejoin="round" fill="none" stroke="#000000" d="M31.58 353.52H37.7V324.36H31.58Z"/>
<path transform="matrix(1,0,0,-1,0,647.28)" stroke-width=".72" stroke-linecap="round" stroke-linejoin="round" fill="none" stroke="#000000" d="M31.58 388.8H37.7V359.63999H31.58Z"/>
<g opacity=".5">
<g clip-path="url(#clip_3)">
<path transform="matrix(1,0,0,-1,0,647.28)" d="M7.1 493.68H160.22V392.63999H7.1Z" fill="#6990ff"/>
<path transform="matrix(1,0,0,-1,0,647.28)" stroke-width=".72" stroke-linecap="round" stroke-linejoin="round" fill="none" stroke="#000000" d="M7.1 493.68H160.22V392.63999H7.1Z"/>
</g>
</g>
<path transform="matrix(1,0,0,-1,0,647.28)" stroke-width=".72" stroke-linecap="round" stroke-linejoin="round" fill="none" stroke="#000000" d="M10.1 490.68H157.22V424.8H10.1Z"/>
<path transform="matrix(1,0,0,-1,0,647.28)" stroke-width=".72" stroke-linecap="round" stroke-linejoin="round" fill="none" stroke="#000000" d="M157.22 395.64H10.100006V421.68003H157.22Z"/>
<path transform="matrix(1,0,0,-1,109.82,180.72003)" stroke-width=".72" stroke-linecap="round" stroke-linejoin="round" fill="none" stroke="#000000" d="M0 0 2.64 2.64"/>
<path transform="matrix(1,0,0,-1,90.2456,200.37693)" stroke-width=".72" stroke-linecap="round" stroke-linejoin="round" fill="none" stroke="#000000" d="M0 0C3.777-4.86 10.021-7.104 16.028-5.759 22.035-4.414 26.726 .277 28.07 6.284 29.415 12.291 27.172 18.534 22.311 22.311"/>
<path transform="matrix(1,0,0,-1,90.14,200.40003)" stroke-width=".72" stroke-linecap="round" stroke-linejoin="round" fill="none" stroke="#000000" d="M0 0 2.64 2.64"/>
<path transform="matrix(1,0,0,-1,92.8093,197.79462)" stroke-width=".72" stroke-linecap="round" stroke-linejoin="round" fill="none" stroke="#000000" d="M0 0C2.843-3.959 7.756-5.866 12.526-4.861 17.296-3.857 21.022-.13 22.027 4.639 23.031 9.409 21.125 14.322 17.165 17.165"/>
<path transform="matrix(1,0,0,-1,108.62,168.00003)" stroke-width=".72" stroke-linecap="round" stroke-linejoin="round" fill="none" stroke="#000000" d="M0 0 1.68-3.72-12.84-10.44V-24.96L-16.32-25.2V-14.52H-18.84V-25.44L-27.96-26.28"/>
<path transform="matrix(1,0,0,-1,80.7607,194.27054)" stroke-width=".72" stroke-linecap="round" stroke-linejoin="round" fill="none" stroke="#000000" d="M0 0C.192 2.036-1.051 3.933-2.994 4.572-4.936 5.21-7.062 4.419-8.115 2.666-9.168 .913-8.868-1.335-7.393-2.75-5.917-4.166-3.658-4.372-1.951-3.247"/>
<path transform="matrix(1,0,0,-1,78.74,197.64002)" stroke-width=".72" stroke-linecap="round" stroke-linejoin="round" fill="none" stroke="#000000" d="M0 0 20.16 1.68V17.28L35.64 24.48 34.44 27.24 32.4 30.84 29.88 29.64"/>
<path transform="matrix(1,0,0,-1,10.1,233.28003)" stroke-width=".72" stroke-linecap="round" stroke-linejoin="round" fill="none" stroke="#000000" d="M0 0 7.44 7.68"/>
<path transform="matrix(1,0,0,-1,10.1,237.60004)" stroke-width=".72" stroke-linecap="round" stroke-linejoin="round" fill="none" stroke="#000000" d="M0 0 11.76 12"/>
<path transform="matrix(1,0,0,-1,16.7,251.64002)" stroke-width=".72" stroke-linecap="round" stroke-linejoin="round" fill="none" stroke="#000000" d="M0 0 25.32 26.04"/>
<path transform="matrix(1,0,0,-1,21.02,251.64002)" stroke-width=".72" stroke-linecap="round" stroke-linejoin="round" fill="none" stroke="#000000" d="M0 0 25.32 26.04"/>
<path transform="matrix(1,0,0,-1,41.18,251.64002)" stroke-width=".72" stroke-linecap="round" stroke-linejoin="round" fill="none" stroke="#000000" d="M0 0 25.44 26.04"/>
<path transform="matrix(1,0,0,-1,45.5,251.64002)" stroke-width=".72" stroke-linecap="round" stroke-linejoin="round" fill="none" stroke="#000000" d="M0 0 25.32 26.04"/>
<path transform="matrix(1,0,0,-1,65.78,251.64002)" stroke-width=".72" stroke-linecap="round" stroke-linejoin="round" fill="none" stroke="#000000" d="M0 0 25.32 26.04"/>
<path transform="matrix(1,0,0,-1,69.98,251.64002)" stroke-width=".72" stroke-linecap="round" stroke-linejoin="round" fill="none" stroke="#000000" d="M0 0 25.44 26.04"/>
<path transform="matrix(1,0,0,-1,90.26,251.64002)" stroke-width=".72" stroke-linecap="round" stroke-linejoin="round" fill="none" stroke="#000000" d="M0 0 25.32 26.04"/>
<path transform="matrix(1,0,0,-1,94.58,251.64002)" stroke-width=".72" stroke-linecap="round" stroke-linejoin="round" fill="none" stroke="#000000" d="M0 0 25.32 26.04"/>
<path transform="matrix(1,0,0,-1,114.74,251.64002)" stroke-width=".72" stroke-linecap="round" stroke-linejoin="round" fill="none" stroke="#000000" d="M0 0 25.44 26.04"/>
<path transform="matrix(1,0,0,-1,119.06,251.64002)" stroke-width=".72" stroke-linecap="round" stroke-linejoin="round" fill="none" stroke="#000000" d="M0 0 25.32 26.04"/>
<path transform="matrix(1,0,0,-1,139.34,251.64002)" stroke-width=".72" stroke-linecap="round" stroke-linejoin="round" fill="none" stroke="#000000" d="M0 0 17.88 18.36"/>
<path transform="matrix(1,0,0,-1,143.54,251.64002)" stroke-width=".72" stroke-linecap="round" stroke-linejoin="round" fill="none" stroke="#000000" d="M0 0 13.68 14.04"/>
<path transform="matrix(1,0,0,-1,0,647.28)" stroke-width=".72" stroke-linecap="round" stroke-linejoin="round" fill="none" stroke="#000000" d="M31.58 454.68H37.7V425.52H31.58Z"/>
<path transform="matrix(1,0,0,-1,0,647.28)" stroke-width=".72" stroke-linecap="round" stroke-linejoin="round" fill="none" stroke="#000000" d="M31.58 489.84H37.7V460.8H31.58Z"/>
<path transform="matrix(1,0,0,-1,0,647.28)" stroke-width=".72" stroke-linecap="round" stroke-linejoin="round" fill="none" stroke="#000000" d="M420.74 440.56H344.06V593.68H420.74Z"/>
<path transform="matrix(1,0,0,-1,0,647.28)" stroke-width=".72" stroke-linecap="round" stroke-linejoin="round" fill="none" stroke="#000000" d="M417.62 443.56H347.18V590.68H417.62Z"/>
<path transform="matrix(1,0,0,-1,0,647.28)" stroke-width=".72" stroke-linecap="round" stroke-linejoin="round" fill="none" stroke="#000000" d="M497.3 440.56H420.74V593.68H497.3Z"/>
<path transform="matrix(1,0,0,-1,0,647.28)" stroke-width=".72" stroke-linecap="round" stroke-linejoin="round" fill="none" stroke="#000000" d="M494.3 443.56H423.74V590.68H494.3Z"/>
<path transform="matrix(1,0,0,-1,0,647.28)" stroke-width=".72" stroke-linecap="round" stroke-linejoin="round" fill="none" stroke="#000000" d="M573.86 440.56H497.3V593.68H573.86Z"/>
<path transform="matrix(1,0,0,-1,0,647.28)" stroke-width=".72" stroke-linecap="round" stroke-linejoin="round" fill="none" stroke="#000000" d="M570.86 443.56H500.41999V590.68H570.86Z"/>
<path transform="matrix(1,0,0,-1,0,647.28)" stroke-width=".72" stroke-linecap="round" stroke-linejoin="round" fill="none" stroke="#000000" d="M420.74 3.48H344.06V156.59999H420.74Z"/>
<path transform="matrix(1,0,0,-1,0,647.28)" stroke-width=".72" stroke-linecap="round" stroke-linejoin="round" fill="none" stroke="#000000" d="M417.62 6.48H347.18V153.59999H417.62Z"/>
<path transform="matrix(1,0,0,-1,0,647.28)" stroke-width=".72" stroke-linecap="round" stroke-linejoin="round" fill="none" stroke="#000000" d="M497.3 3.48H420.74V156.59999H497.3Z"/>
<path transform="matrix(1,0,0,-1,0,647.28)" stroke-width=".72" stroke-linecap="round" stroke-linejoin="round" fill="none" stroke="#000000" d="M494.3 6.48H423.74V153.59999H494.3Z"/>
<path transform="matrix(1,0,0,-1,0,647.28)" stroke-width=".72" stroke-linecap="round" stroke-linejoin="round" fill="none" stroke="#000000" d="M573.86 3.48H497.3V156.59999H573.86Z"/>
<path transform="matrix(1,0,0,-1,0,647.28)" stroke-width=".72" stroke-linecap="round" stroke-linejoin="round" fill="none" stroke="#000000" d="M570.86 6.48H500.41999V153.59999H570.86Z"/>
<path transform="matrix(1,0,0,-1,0,647.28)" stroke-width=".72" stroke-linecap="round" stroke-linejoin="round" fill="none" stroke="#000000" d="M267.5 3.48H190.94V156.59999H267.5Z"/>
<path transform="matrix(1,0,0,-1,0,647.28)" stroke-width=".72" stroke-linecap="round" stroke-linejoin="round" fill="none" stroke="#000000" d="M264.38 6.48H193.94V153.59999H264.38Z"/>
<path transform="matrix(1,0,0,-1,0,647.28)" stroke-width=".72" stroke-linecap="round" stroke-linejoin="round" fill="none" stroke="#000000" d="M344.06 3.48H267.5V156.59999H344.06Z"/>
<path transform="matrix(1,0,0,-1,0,647.28)" stroke-width=".72" stroke-linecap="round" stroke-linejoin="round" fill="none" stroke="#000000" d="M341.06 6.48H270.62V153.59999H341.06Z"/>
<path transform="matrix(1,0,0,-1,1.1,362.85325)" d="M0 0H153.12L183.84-135.323V-288.947H0Z" fill="#bcbcbc"/>
<path transform="matrix(1,0,0,-1,1.1,362.85325)" stroke-width="1" stroke-linecap="butt" stroke-miterlimit="10" stroke-linejoin="miter" fill="none" stroke="#000000" d="M0 0H153.12L183.84-135.323V-288.947H0V0"/>
<path transform="matrix(1,0,0,-1,-6.9,371.65315)" d="M0 0H153.12L183.84-135.323V-288.947H0Z" fill="#d6b972"/>
<path transform="matrix(1,0,0,-1,-6.9,371.65315)" stroke-width="1" stroke-linecap="butt" stroke-miterlimit="10" stroke-linejoin="miter" fill="none" stroke="#000000" d="M0 0H153.12L183.84-135.323V-288.947H0V0"/>
<path transform="matrix(1,0,0,-1,0,647.28)" d="M7.22 602.88H573.98V645.72006H7.22Z" fill="#bcbcbc"/>
<path transform="matrix(1,0,0,-1,0,647.28)" stroke-width="1" stroke-linecap="butt" stroke-miterlimit="10" stroke-linejoin="miter" fill="none" stroke="#000000" d="M7.22 602.88H573.98V645.72006H7.22Z"/>
<path transform="matrix(1,0,0,-1,0,647.28)" stroke-width=".72" stroke-linecap="round" stroke-linejoin="round" fill="none" stroke="#000000" d="M197.06 15.72H226.1V9.6H197.06Z"/>
<path transform="matrix(1,0,0,-1,0,647.28)" stroke-width=".72" stroke-linecap="round" stroke-linejoin="round" fill="none" stroke="#000000" d="M232.22 15.72H261.38V9.6H232.22Z"/>
<path transform="matrix(1,0,0,-1,0,647.28)" stroke-width=".72" stroke-linecap="round" stroke-linejoin="round" fill="none" stroke="#000000" d="M273.62 15.72H302.78V9.6H273.62Z"/>
<path transform="matrix(1,0,0,-1,0,647.28)" stroke-width=".72" stroke-linecap="round" stroke-linejoin="round" fill="none" stroke="#000000" d="M308.9 15.72H337.94V9.6H308.9Z"/>
<path transform="matrix(1,0,0,-1,0,647.28)" stroke-width=".72" stroke-linecap="round" stroke-linejoin="round" fill="none" stroke="#000000" d="M350.18 15.72H379.34V9.6H350.18Z"/>
<path transform="matrix(1,0,0,-1,0,647.28)" stroke-width=".72" stroke-linecap="round" stroke-linejoin="round" fill="none" stroke="#000000" d="M385.46 15.72H414.62V9.6H385.46Z"/>
<path transform="matrix(1,0,0,-1,0,647.28)" stroke-width=".72" stroke-linecap="round" stroke-linejoin="round" fill="none" stroke="#000000" d="M426.86 15.72H455.9V9.6H426.86Z"/>
<path transform="matrix(1,0,0,-1,0,647.28)" stroke-width=".72" stroke-linecap="round" stroke-linejoin="round" fill="none" stroke="#000000" d="M462.02 15.72H491.18V9.6H462.02Z"/>
<path transform="matrix(1,0,0,-1,0,647.28)" stroke-width=".72" stroke-linecap="round" stroke-linejoin="round" fill="none" stroke="#000000" d="M503.42 15.72H532.58V9.6H503.42Z"/>
<path transform="matrix(1,0,0,-1,0,647.28)" stroke-width=".72" stroke-linecap="round" stroke-linejoin="round" fill="none" stroke="#000000" d="M538.7 15.72H567.74V9.6H538.7Z"/>
<path transform="matrix(1,0,0,-1,0,647.28)" stroke-width=".72" stroke-linecap="round" stroke-linejoin="round" fill="none" stroke="#000000" d="M350.18 581.44H379.34V587.56H350.18Z"/>
<path transform="matrix(1,0,0,-1,0,647.28)" stroke-width=".72" stroke-linecap="round" stroke-linejoin="round" fill="none" stroke="#000000" d="M385.46 581.44H414.62V587.56H385.46Z"/>
<path transform="matrix(1,0,0,-1,0,647.28)" stroke-width=".72" stroke-linecap="round" stroke-linejoin="round" fill="none" stroke="#000000" d="M426.86 581.44H455.9V587.56H426.86Z"/>
<path transform="matrix(1,0,0,-1,0,647.28)" stroke-width=".72" stroke-linecap="round" stroke-linejoin="round" fill="none" stroke="#000000" d="M462.02 581.44H491.18V587.56H462.02Z"/>
<path transform="matrix(1,0,0,-1,0,647.28)" stroke-width=".72" stroke-linecap="round" stroke-linejoin="round" fill="none" stroke="#000000" d="M503.42 581.44H532.58V587.56H503.42Z"/>
<path transform="matrix(1,0,0,-1,0,647.28)" stroke-width=".72" stroke-linecap="round" stroke-linejoin="round" fill="none" stroke="#000000" d="M538.7 581.44H567.74V587.56H538.7Z"/>
<path transform="matrix(1,0,0,-1,0,647.28)" d="M15.433 612.347H573.3V645.72H15.433Z" fill="#d6b972"/>
<path transform="matrix(1,0,0,-1,0,647.28)" stroke-width="1" stroke-linecap="butt" stroke-miterlimit="10" stroke-linejoin="miter" fill="none" stroke="#000000" d="M15.433 612.347H573.3V645.72H15.433Z"/>
</g>
<g clip-path="url(#clip_4)">
<g opacity=".5">
<g clip-path="url(#clip_5)">
<path transform="matrix(1,0,0,-1,0,647.28)" d="M264.38 6.48H193.94V153.59999H264.38Z"/>
</g>
</g>
<g opacity=".5">
<g clip-path="url(#clip_6)">
<path transform="matrix(1,0,0,-1,0,647.28)" d="M341.313 6.48H270.873V153.59999H341.313Z"/>
</g>
</g>
<g opacity=".5">
<g clip-path="url(#clip_7)">
<path transform="matrix(1,0,0,-1,0,647.28)" d="M417.847 6.48H347.40699V153.59999H417.847Z"/>
</g>
</g>
<g opacity=".5">
<g clip-path="url(#clip_8)">
<path transform="matrix(1,0,0,-1,0,647.28)" d="M494.38 6.48H423.94V153.59999H494.38Z"/>
</g>
</g>
<g opacity=".5">
<g clip-path="url(#clip_9)">
<path transform="matrix(1,0,0,-1,0,647.28)" d="M570.913 6.48H500.47303V153.59999H570.913Z"/>
</g>
</g>
<g opacity=".5">
<g clip-path="url(#clip_10)">
<path transform="matrix(1,0,0,-1,0,647.28)" d="M570.913 443.88H500.47303V591H570.913Z"/>
</g>
</g>
<g opacity=".5">
<g clip-path="url(#clip_11)">
<path transform="matrix(1,0,0,-1,0,647.28)" d="M494.313 443.88H423.873V591H494.313Z"/>
</g>
</g>
<g opacity=".5">
<g clip-path="url(#clip_12)">
<path transform="matrix(1,0,0,-1,0,647.28)" d="M417.713 443.88H347.273V591H417.713Z"/>
</g>
</g>
</g>
<path transform="matrix(1,0,0,-1,0,647.28)" d="M664.9 400.08H687.7V647.27999H664.9Z" fill="#bcbcbc"/>
<g clip-path="url(#clip_13)">
<path transform="matrix(1,0,0,-1,0,647.28)" stroke-width="1" stroke-linecap="butt" stroke-miterlimit="10" stroke-linejoin="miter" fill="none" stroke="#000000" d="M687.7 400.08H664.9V647.27999H687.7Z"/>
</g>
<path transform="matrix(1,0,0,-1,0,647.28)" d="M664.9 0H687.7V159.28H664.9Z" fill="#bcbcbc"/>
<g clip-path="url(#clip_14)">
<path transform="matrix(1,0,0,-1,0,647.28)" stroke-width="1" stroke-linecap="butt" stroke-miterlimit="10" stroke-linejoin="miter" fill="none" stroke="#000000" d="M687.7 0H664.9V159.28H687.7Z"/>
</g>
<path transform="matrix(1,0,0,-1,0,647.28)" d="M664.9 408.771H590.10006V646.025H664.9Z" fill="#d6b972"/>
<g clip-path="url(#clip_15)">
<path transform="matrix(1,0,0,-1,0,647.28)" stroke-width="1" stroke-linecap="butt" stroke-miterlimit="10" stroke-linejoin="miter" fill="none" stroke="#000000" d="M664.9 408.771H590.10006V646.025H664.9Z"/>
</g>
<path transform="matrix(1,0,0,-1,0,647.28)" d="M580.767 159.3H664.9V3.4799958H580.767Z" fill="#bcbcbc"/>
<path transform="matrix(1,0,0,-1,0,647.28)" stroke-width="1" stroke-linecap="butt" stroke-miterlimit="10" stroke-linejoin="miter" fill="none" stroke="#000000" d="M580.767 159.3H664.9V3.4799958H580.767Z"/>
<path transform="matrix(1,0,0,-1,0,647.28)" d="M664.9 153.617H590.10006V3.480011H664.9Z" fill="#d6b972"/>
<path transform="matrix(1,0,0,-1,0,647.28)" stroke-width="1" stroke-linecap="butt" stroke-miterlimit="10" stroke-linejoin="miter" fill="none" stroke="#000000" d="M664.9 153.617H590.10006V3.480011H664.9Z"/>
<path transform="matrix(1,0,0,-1,0,647.28)" d="M664.1 645.72H573.98V612.347H664.1Z" fill="#d6b972"/>
<path transform="matrix(1,0,0,-1,0,647.28)" d="M590.1 612.347H573.98V602.88H590.1Z" fill="#bcbcbc"/>
<path transform="matrix(1,0,0,-1,0,647.28)" stroke-width="1" stroke-linecap="butt" stroke-miterlimit="10" stroke-linejoin="miter" fill="none" stroke="#000000" d="M590.1 612.347H573.98V602.88H590.1Z"/>
<path transform="matrix(1,0,0,-1,0,647.28)" d="M681.7 271.413H670.9V280.346H681.7Z"/>
<path transform="matrix(1,0,0,-1,0,647.28)" d="M673.9 367.8H671.9V280.347H673.9Z" fill="#757575"/>
<path transform="matrix(1,0,0,-1,0,647.28)" d="M680.7 271.413H678.7V184.07999H680.7Z" fill="#757575"/>
</g>
</g>
</svg>
