<svg xmlns="http://www.w3.org/2000/svg" xmlns:xlink="http://www.w3.org/1999/xlink" xmlns:inkscape="http://www.inkscape.org/namespaces/inkscape" version="1.1" viewBox="0 0 595 842">
<defs>
<clipPath id="clip_0">
<path transform="matrix(.12,0,0,-.12,14,794)" d="M0 1049H4724V5162H0V1049"/>
</clipPath>
</defs>
<g clip-path="url(#clip_0)">
<g inkscape:groupmode="layer" inkscape:label="0">
<path transform="matrix(.12,0,0,-.12,14,794)" stroke-width="6" stroke-linecap="round" stroke-linejoin="round" fill="none" stroke="#000000" d="M180 5136 245 5073"/>
<path transform="matrix(.12,0,0,-.12,14,794)" stroke-width="6" stroke-linecap="round" stroke-linejoin="round" fill="none" stroke="#000000" d="M143 5136 245 5037"/>
<path transform="matrix(.12,0,0,-.12,14,794)" stroke-width="6" stroke-linecap="round" stroke-linejoin="round" fill="none" stroke="#000000" d="M25 5080 245 4866"/>
<path transform="matrix(.12,0,0,-.12,14,794)" stroke-width="6" stroke-linecap="round" stroke-linejoin="round" fill="none" stroke="#000000" d="M25 5044 245 4830"/>
<path transform="matrix(.12,0,0,-.12,14,794)" stroke-width="6" stroke-linecap="round" stroke-linejoin="round" fill="none" stroke="#000000" d="M25 4873 245 4660"/>
<path transform="matrix(.12,0,0,-.12,14,794)" stroke-width="6" stroke-linecap="round" stroke-linejoin="round" fill="none" stroke="#000000" d="M25 4837 245 4624"/>
<path transform="matrix(.12,0,0,-.12,14,794)" stroke-width="6" stroke-linecap="round" stroke-linejoin="round" fill="none" stroke="#000000" d="M25 4667 245 4453"/>
<path transform="matrix(.12,0,0,-.12,14,794)" stroke-width="6" stroke-linecap="round" stroke-linejoin="round" fill="none" stroke="#000000" d="M25 4631 245 4417"/>
<path transform="matrix(.12,0,0,-.12,14,794)" stroke-width="6" stroke-linecap="round" stroke-linejoin="round" fill="none" stroke="#000000" d="M25 4461 245 4247"/>
<path transform="matrix(.12,0,0,-.12,14,794)" stroke-width="6" stroke-linecap="round" stroke-linejoin="round" fill="none" stroke="#000000" d="M25 4424 245 4211"/>
<path transform="matrix(.12,0,0,-.12,14,794)" stroke-width="6" stroke-linecap="round" stroke-linejoin="round" fill="none" stroke="#000000" d="M25 4254 245 4040"/>
<path transform="matrix(.12,0,0,-.12,14,794)" stroke-width="6" stroke-linecap="round" stroke-linejoin="round" fill="none" stroke="#000000" d="M25 4218 245 4004"/>
<path transform="matrix(.12,0,0,-.12,14,794)" stroke-width="6" stroke-linecap="round" stroke-linejoin="round" fill="none" stroke="#000000" d="M25 4048 180 3897"/>
<path transform="matrix(.12,0,0,-.12,14,794)" stroke-width="6" stroke-linecap="round" stroke-linejoin="round" fill="none" stroke="#000000" d="M25 4012 143 3897"/>
<path transform="matrix(.12,0,0,-.12,14,794)" stroke-width="6" stroke-linecap="round" stroke-linejoin="round" fill="none" stroke="#000000" d="M277 4955H522V4903H277V4955"/>
<path transform="matrix(.12,0,0,-.12,14,794)" stroke-width="6" stroke-linecap="round" stroke-linejoin="round" fill="none" stroke="#000000" d="M574 4955H819V4903H574V4955"/>
<path transform="matrix(.12,0,0,-.12,14,794)" stroke-width="6" stroke-linecap="round" stroke-linejoin="round" fill="none" stroke="#000000" d="M1497 5161V3871H851V5161H1497"/>
<path transform="matrix(.12,0,0,-.12,14,794)" stroke-width="6" stroke-linecap="round" stroke-linejoin="round" fill="none" stroke="#000000" d="M1471 5136V3897H877V5136H1471"/>
<path transform="matrix(.12,0,0,-.12,14,794)" stroke-width="6" stroke-linecap="round" stroke-linejoin="round" fill="none" stroke="#000000" d="M2142 5161V3871H1497V5161H2142"/>
<path transform="matrix(.12,0,0,-.12,14,794)" stroke-width="6" stroke-linecap="round" stroke-linejoin="round" fill="none" stroke="#000000" d="M2116 5136V3897H1523V5136H2116"/>
<path transform="matrix(.12,0,0,-.12,14,794)" stroke-width="6" stroke-linecap="round" stroke-linejoin="round" fill="none" stroke="#000000" d="M903 4903H1148V4955H903V4903"/>
<path transform="matrix(.12,0,0,-.12,14,794)" stroke-width="6" stroke-linecap="round" stroke-linejoin="round" fill="none" stroke="#000000" d="M1200 4903H1445V4955H1200V4903"/>
<path transform="matrix(.12,0,0,-.12,14,794)" stroke-width="6" stroke-linecap="round" stroke-linejoin="round" fill="none" stroke="#000000" d="M1548 4903H1794V4955H1548V4903"/>
<path transform="matrix(.12,0,0,-.12,14,794)" stroke-width="6" stroke-linecap="round" stroke-linejoin="round" fill="none" stroke="#000000" d="M1845 4903H2090V4955H1845V4903"/>
<path transform="matrix(.12,0,0,-.12,14,794)" stroke-width="6" stroke-linecap="round" stroke-linejoin="round" fill="none" stroke="#000000" d="M698 4292 642 4414H520L517 4443H608V4465H515L508 4541"/>
<path transform="matrix(.12,0,0,-.12,14,794)" stroke-width="6" stroke-linecap="round" stroke-linejoin="round" fill="none" stroke="#000000" d="M507.9854 4541.165C525.41567 4539.5246 541.6618 4550.1628 547.1264 4566.795 552.59109 4583.4279 545.81979 4601.628 530.81277 4610.6447 515.8058 4619.6608 496.55693 4617.0939 484.43763 4604.459 472.3183 4591.8249 470.5539 4572.486 480.1867 4557.8669"/>
<path transform="matrix(.12,0,0,-.12,14,794)" stroke-width="6" stroke-linecap="round" stroke-linejoin="round" fill="none" stroke="#000000" d="M480 4558 495 4388H625L686 4257 709 4268 740 4285 729 4306 698 4292"/>
<path transform="matrix(.12,0,0,-.12,14,794)" stroke-width="6" stroke-linecap="round" stroke-linejoin="round" fill="none" stroke="#000000" d="M456.965 4462.699C415.85066 4430.746 396.8736 4377.932 408.24833 4327.119 419.62303 4276.3059 459.30558 4236.623 510.11897 4225.2487 560.9323 4213.8737 613.746 4232.8508 645.699 4273.965"/>
<path transform="matrix(.12,0,0,-.12,14,794)" stroke-width="6" stroke-linecap="round" stroke-linejoin="round" fill="none" stroke="#000000" d="M456 4462 478 4439"/>
<path transform="matrix(.12,0,0,-.12,14,794)" stroke-width="6" stroke-linecap="round" stroke-linejoin="round" fill="none" stroke="#000000" d="M479.12757 4440.568C445.81257 4416.643 429.76853 4375.3029 438.2223 4335.1677 446.67607 4295.0329 478.03254 4263.6765 518.16757 4255.222 558.30258 4246.7687 599.6431 4262.8127 623.56796 4296.1276"/>
<path transform="matrix(.12,0,0,-.12,14,794)" stroke-width="6" stroke-linecap="round" stroke-linejoin="round" fill="none" stroke="#000000" d="M622 4295 645 4273"/>
<path transform="matrix(.12,0,0,-.12,14,794)" stroke-width="6" stroke-linecap="round" stroke-linejoin="round" fill="none" stroke="#000000" d="M0 3871V5161H851V3871H0"/>
<path transform="matrix(.12,0,0,-.12,14,794)" stroke-width="6" stroke-linecap="round" stroke-linejoin="round" fill="none" stroke="#000000" d="M25 3897V5136H245V3897H25"/>
<path transform="matrix(.12,0,0,-.12,14,794)" stroke-width="6" stroke-linecap="round" stroke-linejoin="round" fill="none" stroke="#000000" d="M271 3897V5136H826V3897H271"/>
<path transform="matrix(.12,0,0,-.12,14,794)" stroke-width="6" stroke-linecap="round" stroke-linejoin="round" fill="none" stroke="#000000" d="M2787 5161V3871H2142V5161H2787"/>
<path transform="matrix(.12,0,0,-.12,14,794)" stroke-width="6" stroke-linecap="round" stroke-linejoin="round" fill="none" stroke="#000000" d="M2762 5136V3897H2168V5136H2762"/>
<path transform="matrix(.12,0,0,-.12,14,794)" stroke-width="6" stroke-linecap="round" stroke-linejoin="round" fill="none" stroke="#000000" d="M3433 5161V3871H2787V5161H3433"/>
<path transform="matrix(.12,0,0,-.12,14,794)" stroke-width="6" stroke-linecap="round" stroke-linejoin="round" fill="none" stroke="#000000" d="M3407 5136V3897H2813V5136H3407"/>
<path transform="matrix(.12,0,0,-.12,14,794)" stroke-width="6" stroke-linecap="round" stroke-linejoin="round" fill="none" stroke="#000000" d="M2491 4903H2736V4955H2491V4903"/>
<path transform="matrix(.12,0,0,-.12,14,794)" stroke-width="6" stroke-linecap="round" stroke-linejoin="round" fill="none" stroke="#000000" d="M2839 4903H3084V4955H2839V4903"/>
<path transform="matrix(.12,0,0,-.12,14,794)" stroke-width="6" stroke-linecap="round" stroke-linejoin="round" fill="none" stroke="#000000" d="M3136 4903H3381V4955H3136V4903"/>
<path transform="matrix(.12,0,0,-.12,14,794)" stroke-width="6" stroke-linecap="round" stroke-linejoin="round" fill="none" stroke="#000000" d="M4078 5161V3871H3433V5161H4078"/>
<path transform="matrix(.12,0,0,-.12,14,794)" stroke-width="6" stroke-linecap="round" stroke-linejoin="round" fill="none" stroke="#000000" d="M4052 5136V3897H3459V5136H4052"/>
<path transform="matrix(.12,0,0,-.12,14,794)" stroke-width="6" stroke-linecap="round" stroke-linejoin="round" fill="none" stroke="#000000" d="M4723 5161V3871H4078V5161H4723"/>
<path transform="matrix(.12,0,0,-.12,14,794)" stroke-width="6" stroke-linecap="round" stroke-linejoin="round" fill="none" stroke="#000000" d="M4698 5136V3897H4104V5136H4698"/>
<path transform="matrix(.12,0,0,-.12,14,794)" stroke-width="6" stroke-linecap="round" stroke-linejoin="round" fill="none" stroke="#000000" d="M3781 4903H4027V4955H3781V4903"/>
<path transform="matrix(.12,0,0,-.12,14,794)" stroke-width="6" stroke-linecap="round" stroke-linejoin="round" fill="none" stroke="#000000" d="M4130 4903H4375V4955H4130V4903"/>
<path transform="matrix(.12,0,0,-.12,14,794)" stroke-width="6" stroke-linecap="round" stroke-linejoin="round" fill="none" stroke="#000000" d="M4427 4903H4672V4955H4427V4903"/>
<path transform="matrix(.12,0,0,-.12,14,794)" stroke-width="6" stroke-linecap="round" stroke-linejoin="round" fill="none" stroke="#000000" d="M2194 4903H2439V4955H2194V4903"/>
<path transform="matrix(.12,0,0,-.12,14,794)" stroke-width="6" stroke-linecap="round" stroke-linejoin="round" fill="none" stroke="#000000" d="M3484 4903H3730V4955H3484V4903"/>
<path transform="matrix(.12,0,0,-.12,14,794)" stroke-width="6" stroke-linecap="round" stroke-linejoin="round" fill="none" stroke="#000000" d="M1329 1049H0V1290H1329V1049"/>
<path transform="matrix(.12,0,0,-.12,14,794)" stroke-width="6" stroke-linecap="round" stroke-linejoin="round" fill="none" stroke="#000000" d="M3394 1290H4723V1049H3394V1290"/>
</g>
</g>
</svg>
